Coordinates
version=1
nRows=41
nColumns=38
inDegrees=no

Units are S.I. units (second, meters, Newtons, ...)
If the header above contains a line with 'inDegrees', this indicates whether rotational values are in degrees (yes) or radians (no).

endheader
time	pelvis_tilt	pelvis_list	pelvis_rotation	pelvis_tx	pelvis_ty	pelvis_tz	hip_flexion_r	hip_adduction_r	hip_rotation_r	knee_angle_r	ankle_angle_r	subtalar_angle_r	mtp_angle_r	hip_flexion_l	hip_adduction_l	hip_rotation_l	knee_angle_l	ankle_angle_l	subtalar_angle_l	mtp_angle_l	lumbar_extension	lumbar_bending	lumbar_rotation	arm_flex_r	arm_add_r	arm_rot_r	elbow_flex_r	pro_sup_r	wrist_flex_r	wrist_dev_r	arm_flex_l	arm_add_l	arm_rot_l	elbow_flex_l	pro_sup_l	wrist_flex_l	wrist_dev_l
30	-2.32047	1.27088	0.885911	0.874621	0.792223	1.01048	0.471895	-0.0313537	-0.342368	0.800446	-0.0714568	0	0	0.232259	-0.194933	-0.00668428	0.453466	-0.0980735	0	0	-0.00457046	0.258319	0.146737	0.548656	-0.0501467	0.374672	0.900546	1.5708	0	0	-0.172308	-0.173872	0.135401	0.581881	1.5708	0	0
30.01	-2.30318	1.26995	0.873249	0.875183	0.788001	1.01095	0.483409	-0.0279072	-0.346325	0.785941	-0.07314	0	0	0.229256	-0.200982	-0.0159323	0.46289	-0.098412	0	0	-0.00815722	0.263229	0.146573	0.559056	-0.0512063	0.367885	0.889781	1.5708	0	0	-0.170496	-0.172952	0.134796	0.581849	1.5708	0	0
30.02	-2.28849	1.26777	0.863311	0.875739	0.783703	1.01128	0.496215	-0.0240901	-0.349686	0.770734	-0.0685539	0	0	0.227332	-0.205842	-0.028021	0.470685	-0.0965262	0	0	-0.00907225	0.268694	0.146976	0.568285	-0.0525776	0.359033	0.878157	1.5708	0	0	-0.167675	-0.172925	0.140247	0.578865	1.5708	0	0
30.03	-2.26713	1.28315	0.841666	0.877651	0.778765	1.01308	0.492952	-0.0315306	-0.349371	0.756991	-0.0578695	0	0	0.230625	-0.179342	-0.163316	0.567539	-0.0719339	0	0	-0.0279357	0.265724	0.15386	0.579893	-0.0565021	0.351471	0.866757	1.5708	0	0	-0.159824	-0.170998	0.153383	0.570044	1.5708	0	0
30.04	-2.22885	1.27832	0.805791	0.8761	0.773955	1.01413	0.501157	-0.0140525	-0.348054	0.735792	-0.0536225	0	0	0.184182	-0.224004	-0.121515	0.363396	-0.131088	0	0	-0.0334291	0.274979	0.159139	0.590173	-0.0563274	0.342053	0.853776	1.5708	0	0	-0.156286	-0.173706	0.159717	0.567344	1.5708	0	0
30.05	-2.24473	1.25922	0.832789	0.876615	0.770394	1.01226	0.534878	-0.0082334	-0.356328	0.721906	-0.0479662	0	0	0.208691	-0.22872	-0.0582467	0.429857	-0.106744	0	0	-0.00886205	0.286395	0.150138	0.598357	-0.0594072	0.342268	0.838833	1.5708	0	0	-0.158673	-0.173259	0.166105	0.564182	1.5708	0	0
30.06	-2.23377	1.25456	0.827126	0.876854	0.76605	1.01225	0.549787	-0.00287816	-0.359368	0.705312	-0.0456481	0	0	0.206409	-0.234959	-0.0613987	0.430019	-0.106358	0	0	-0.00624153	0.292534	0.150267	0.608482	-0.0629785	0.33941	0.826437	1.5708	0	0	-0.157583	-0.172599	0.170504	0.56118	1.5708	0	0
30.07	-2.2202	1.2516	0.818014	0.876954	0.761534	1.01247	0.562334	0.00253288	-0.361378	0.688626	-0.0450997	0	0	0.198432	-0.242618	-0.0733494	0.408262	-0.10878	0	0	-0.00636499	0.297779	0.15224	0.617287	-0.0673944	0.332689	0.817687	1.5708	0	0	-0.156077	-0.172097	0.174691	0.558158	1.5708	0	0
30.08	-2.21023	1.26786	0.809772	0.879159	0.756701	1.01405	0.560954	-0.00981786	-0.362556	0.676866	-0.0472794	0	0	0.218846	-0.210846	-0.235351	0.539322	-0.0826601	0	0	-0.0231092	0.29073	0.15759	0.627964	-0.0746552	0.326787	0.810354	1.5708	0	0	-0.149435	-0.16903	0.184393	0.549174	1.5708	0	0
30.09	-2.18412	1.25828	0.786609	0.877422	0.751644	1.01432	0.573858	0.00803934	-0.362023	0.655333	-0.0551574	0	0	0.165048	-0.24674	-0.167828	0.310855	-0.135458	0	0	-0.020957	0.301375	0.1623	0.634929	-0.0768132	0.31645	0.79981	1.5708	0	0	-0.147253	-0.173842	0.200696	0.545207	1.5708	0	0
30.1	-2.18454	1.24474	0.795946	0.877284	0.747551	1.01311	0.597448	0.0152681	-0.368177	0.638733	-0.0594966	0	0	0.17382	-0.258924	-0.125754	0.340284	-0.127525	0	0	-0.00771911	0.310903	0.155808	0.642825	-0.0802093	0.312673	0.790271	1.5708	0	0	-0.14647	-0.18577	0.244389	0.546111	1.5708	0	0
30.11	-2.17607	1.24583	0.792141	0.877489	0.742717	1.01347	0.606342	0.0156777	-0.371133	0.622094	-0.0672454	0	0	0.1645	-0.25722	-0.156413	0.312707	-0.131987	0	0	-0.00973402	0.311933	0.159023	0.649563	-0.0866079	0.303895	0.782274	1.5708	0	0	-0.148416	-0.173893	0.210185	0.541398	1.5708	0	0
30.12	-2.15844	1.26189	0.777059	0.878668	0.737697	1.01532	0.60083	0.0072932	-0.371508	0.6062	-0.092065	0	0	0.15506	-0.238946	-0.26306	0.288988	-0.140116	0	0	-0.0300002	0.303699	0.163039	0.660953	-0.0917708	0.297526	0.774078	1.5708	0	0	-0.142299	-0.175232	0.223877	0.535948	1.5708	0	0
30.13	-2.1522	1.25893	0.778143	0.878709	0.733049	1.01503	0.612322	0.00922991	-0.375426	0.588484	-0.0933773	0	0	0.150361	-0.242382	-0.260581	0.282443	-0.140152	0	0	-0.0281517	0.306842	0.16152	0.667126	-0.0978598	0.290503	0.768948	1.5708	0	0	-0.143707	-0.172212	0.21612	0.534165	1.5708	0	0
30.14	-2.14812	1.25488	0.782584	0.878848	0.72829	1.01456	0.62408	0.0101372	-0.382327	0.569898	-0.129228	0	0	0.148416	-0.246685	-0.257172	0.27857	-0.142293	0	0	-0.0241627	0.310361	0.158596	0.671297	-0.103625	0.280966	0.764854	1.5708	0	0	-0.143285	-0.173127	0.224429	0.530483	1.5708	0	0
30.15	-2.13338	1.24152	0.775795	0.877776	0.723235	1.01323	0.639086	0.0221875	-0.389962	0.548849	-0.152277	0	0	0.127064	-0.274088	-0.196229	0.226661	-0.154954	0	0	-0.0145549	0.322853	0.157039	0.672735	-0.110105	0.270829	0.763721	1.5708	0	0	-0.145186	-0.177443	0.240968	0.530661	1.5708	0	0
30.16	-2.12427	1.24073	0.773734	0.877827	0.717995	1.01295	0.645305	0.0225075	-0.396611	0.529983	-0.166333	0	0	0.113429	-0.278959	-0.207481	0.184294	-0.160143	0	0	-0.0149714	0.324543	0.155217	0.6766	-0.116693	0.262971	0.761904	1.5708	0	0	-0.143405	-0.183771	0.267161	0.528019	1.5708	0	0
30.17	-2.16243	1.21457	0.830814	0.87782	0.714294	1.00919	0.684467	0.020355	-0.410094	0.511585	-0.195491	0	0	0.153655	-0.284675	-0.0875103	0.30873	-0.126431	0	0	0.0265057	0.332781	0.13562	0.676026	-0.120895	0.252243	0.755152	1.5708	0	0	-0.153246	-0.18096	0.253981	0.52761	1.5708	0	0
30.18	-2.12826	1.23024	0.799237	0.878061	0.707997	1.01079	0.668099	0.019393	-0.414993	0.489368	-0.223313	0	0	0.12235	-0.287702	-0.17962	0.220827	-0.150492	0	0	0.00202487	0.32947	0.145206	0.677608	-0.131994	0.240231	0.762518	1.5708	0	0	-0.144907	-0.18409	0.276088	0.519632	1.5708	0	0
30.19	-2.11629	1.23468	0.79589	0.878377	0.702322	1.01078	0.66635	0.0158177	-0.424182	0.467934	-0.248149	0	0	0.10517	-0.286129	-0.199455	0.173287	-0.158911	0	0	-0.00292951	0.328349	0.145484	0.676431	-0.139918	0.225159	0.767285	1.5708	0	0	-0.139076	-0.190698	0.312885	0.51321	1.54301	0	0
30.2	-2.11859	1.23544	0.810818	0.87898	0.697093	1.01005	0.670525	0.00830527	-0.435088	0.446941	-0.272159	0	0	0.112685	-0.280114	-0.19859	0.206356	-0.14965	0	0	0.000518774	0.326375	0.140427	0.674047	-0.148449	0.209645	0.773002	1.5708	0	0	-0.131303	-0.200875	0.37032	0.505243	1.50478	0	0
30.21	-2.13242	1.21508	0.841584	0.878611	0.692097	1.00671	0.693272	0.0102097	-0.447796	0.423316	-0.296725	0	0	0.128295	-0.298681	-0.10969	0.263431	-0.134143	0	0	0.0306938	0.336167	0.126048	0.669494	-0.154316	0.196137	0.773388	1.5708	0	0	-0.130069	-0.21849	0.45023	0.506832	1.43568	0	0
30.22	-2.09751	1.23651	0.812884	0.879279	0.685459	1.00844	0.667813	0.00385948	-0.454921	0.399637	-0.317108	0	0	0.0940073	-0.289929	-0.189193	0.178201	-0.153059	0	0	0.00156257	0.328754	0.134522	0.666744	-0.166538	0.17805	0.787912	1.5708	0	0	-0.112533	-0.233876	0.535203	0.503014	1.36054	0	0
30.23	-2.14032	1.25909	0.876985	0.882302	0.681097	1.00961	0.66162	-0.036114	-0.467292	0.383902	-0.332573	0	0	0.124264	-0.198367	-0.191416	0.314517	-0.110234	0	0	-0.00533516	0.299861	0.123676	0.662387	-0.175921	0.154465	0.7969	1.5708	0	0	-0.0924041	-0.240714	0.600592	0.485686	1.31091	0	0
30.24	-2.07168	1.24166	0.811615	0.879813	0.673199	1.00667	0.656067	-0.00220905	-0.472403	0.350812	-0.339775	0	0	0.0732935	-0.299463	-0.186875	0.151287	-0.153914	0	0	-0.00176555	0.328516	0.127934	0.6538	-0.184848	0.142115	0.811882	1.5708	0	0	-0.108606	-0.249165	0.593615	0.508544	1.32379	0	0
30.25	-2.06448	1.24507	0.817327	0.880124	0.666955	1.00562	0.649927	-0.00731493	-0.478493	0.327312	-0.345412	0	0	0.0676913	-0.301055	-0.18505	0.15308	-0.152664	0	0	-0.000826177	0.327373	0.127085	0.643201	-0.195615	0.119396	0.826609	1.5708	0	0	-0.0956531	-0.262111	0.678766	0.505663	1.23888	0	0
30.26	-2.0536	1.25	0.822	0.880714	0.660542	1.00455	0.640714	-0.0153835	-0.493449	0.306632	-0.359416	0	0	0.0603051	-0.302349	-0.181555	0.153766	-0.150779	0	0	-0.00241089	0.324245	0.118712	0.637624	-0.203496	0.105594	0.836949	1.5708	0	0	-0.1032	-0.262949	0.65531	0.510468	1.27299	0	0
30.27	-2.04706	1.25364	0.829623	0.880903	0.653895	1.00328	0.633003	-0.0207684	-0.498968	0.285739	-0.359728	0	0	0.0551652	-0.304203	-0.17777	0.15621	-0.146734	0	0	0.000392214	0.321964	0.116844	0.624783	-0.214691	0.0840441	0.852968	1.5708	0	0	-0.0924732	-0.274985	0.730634	0.509446	1.1922	0	0
30.28	-2.03503	1.25874	0.830938	0.880952	0.647149	1.0021	0.622355	-0.024533	-0.500281	0.266298	-0.362693	0	0	0.0473336	-0.306884	-0.175254	0.159072	-0.144525	0	0	-0.00217393	0.318762	0.112238	0.615813	-0.223785	0.069377	0.868663	1.5708	0	0	-0.100636	-0.275751	0.703282	0.514751	1.2266	0	0
30.29	-2.03359	1.26065	0.840073	0.880571	0.640364	1.00058	0.61633	-0.0247004	-0.484572	0.245399	-0.335092	0	0	0.0440493	-0.309744	-0.172289	0.162864	-0.140651	0	0	2.17192e-05	0.316298	0.11346	0.601197	-0.234649	0.0479882	0.889768	1.5708	0	0	-0.0983113	-0.281112	0.727802	0.515377	1.20462	0	0
30.3	-2.0335	1.26337	0.84965	0.880378	0.633251	0.99908	0.610053	-0.0273409	-0.477315	0.229469	-0.328377	0	0	0.0394552	-0.311715	-0.171592	0.165931	-0.137718	0	0	0.00215617	0.313451	0.11474	0.584104	-0.245998	0.0272636	0.913129	1.5708	0	0	-0.0978312	-0.284564	0.745189	0.514584	1.18947	0	0
30.31	-2.03726	1.26612	0.860514	0.880139	0.625736	0.997559	0.604255	-0.0296645	-0.468177	0.216559	-0.32238	0	0	0.0338537	-0.312735	-0.173571	0.167848	-0.135647	0	0	0.00542661	0.310091	0.117711	0.56581	-0.256893	0.00741822	0.935948	1.5708	0	0	-0.0987109	-0.287074	0.760736	0.512482	1.17554	0	0
30.32	-2.03609	1.26997	0.866881	0.879946	0.617978	0.996202	0.596231	-0.0332421	-0.469157	0.209632	-0.340144	0	0	0.0262223	-0.314424	-0.175687	0.169863	-0.133779	0	0	0.00675532	0.307265	0.119691	0.548453	-0.267034	-0.0108326	0.957649	1.5708	0	0	-0.10082	-0.289722	0.772823	0.511601	1.16147	0	0
30.33	-2.04825	1.26913	0.883457	0.879142	0.610066	0.994448	0.592238	-0.0301235	-0.439381	0.193457	-0.285643	0	0	0.025159	-0.31652	-0.17666	0.173963	-0.129952	0	0	0.0154921	0.304703	0.125491	0.527959	-0.277203	-0.0312097	0.979184	1.5708	0	0	-0.0957825	-0.298349	0.830232	0.510343	1.09444	0	0
30.34	-2.04622	1.27245	0.887891	0.878603	0.602031	0.993191	0.582788	-0.0295257	-0.431119	0.185609	-0.280514	0	0	0.0180796	-0.319166	-0.177221	0.177969	-0.130085	0	0	0.0154715	0.302101	0.12637	0.511441	-0.285345	-0.0475197	1.00024	1.5708	0	0	-0.103521	-0.300915	0.819522	0.513381	1.10297	0	0
30.35	-2.04356	1.27578	0.891113	0.877984	0.593822	0.992016	0.573307	-0.0283553	-0.424857	0.18061	-0.270994	0	0	0.0110519	-0.322101	-0.17751	0.183225	-0.12884	0	0	0.0152191	0.300326	0.128229	0.49323	-0.293451	-0.064877	1.02278	1.5708	0	0	-0.108054	-0.30085	0.819515	0.511317	1.10674	0	0
30.36	-2.03819	1.2793	0.891935	0.877395	0.585382	0.990886	0.563486	-0.0275962	-0.430075	0.181465	-0.258198	0	0	0.00356019	-0.325889	-0.178024	0.189127	-0.127417	0	0	0.0143861	0.299273	0.129343	0.474352	-0.300843	-0.0826091	1.04566	1.5708	0	0	-0.112788	-0.301521	0.821488	0.509754	1.10478	0	0
30.37	-2.01762	1.28591	0.876732	0.876641	0.57741	0.989862	0.547017	-0.0216591	-0.418218	0.175032	-0.241655	0	0	0.00120852	-0.329173	-0.1847	0.236428	-0.116217	0	0	-0.00166422	0.306669	0.144941	0.45517	-0.293102	-0.0878809	1.11785	1.38795	0	0	-0.100262	-0.299726	0.858765	0.502003	1.0772	0	0
30.38	-2.03303	1.28332	0.89761	0.875365	0.567852	0.988429	0.544195	-0.0186683	-0.415535	0.174071	-0.233291	0	0	-0.00617074	-0.335904	-0.178588	0.205797	-0.122289	0	0	0.0160479	0.297575	0.1313	0.435925	-0.313794	-0.114653	1.08971	1.5708	0	0	-0.121079	-0.307298	0.84258	0.508029	1.07143	0	0
30.39	-2.00434	1.29261	0.874294	0.874249	0.558949	0.987343	0.524701	-0.0140803	-0.418203	0.176733	-0.209352	0	0	-0.0213833	-0.343483	-0.185714	0.217508	-0.119528	0	0	-0.00208287	0.301475	0.146677	0.415888	-0.301339	-0.119559	1.16067	1.36383	0	0	-0.0594643	-0.263413	0.974363	0.401156	0.792642	0	0
30.4	-2.01199	1.29137	0.888983	0.87315	0.549575	0.985669	0.51909	-0.010931	-0.419847	0.176075	-0.207989	0	0	-0.0189715	-0.349241	-0.180566	0.230209	-0.119669	0	0	0.00526718	0.300313	0.1423	0.396289	-0.303278	-0.13413	1.18056	1.37197	0	0	-0.0690507	-0.26556	0.970743	0.400235	0.786105	0	0
